# xmcd
# Copyright (C) 1995-1998 Ti Kan
#
# Track frame offsets:
#       150
#       20117
#       34573
#       55022
#       76267
#       94667
#       114595
#       130957
#       151820
#       171314
#       186216
#       207360
#       227659
#       256088
#
# Disc length: 3786 seconds
#
# Revision: 0
# Processed by: cddbd v1.5.1PL0 Copyright (c) Steve Scherf et al.
# Submitted via: CD-Transfer v1.0
#
DISCID=af0ec80e
DTITLE=Sandee - Meh Vo Mir
DYEAR=2005
DGENRE=
TTITLE0=Itz Chumme I
TTITLE1=I Erinnere Mi
TTITLE2=Solang
TTITLE3=I Danke Dir
TTITLE4=Ei Fuess Vore Ander
TTITLE5=Tänzerin
TTITLE6=Wie Mit Dir
TTITLE7=Am A.... Verbii
TTITLE8=Hiuf Mer
TTITLE9=I Wott Meh
TTITLE10=Frag Mi Nid
TTITLE11=Ohne Dich
TTITLE12=Pris Fü Dümmi
TTITLE13=Data Track
EXTD=
EXTT0=
EXTT1=
EXTT2=
EXTT3=
EXTT4=
EXTT5=
EXTT6=
EXTT7=
EXTT8=
EXTT9=
EXTT10=
EXTT11=
EXTT12=
EXTT13=
PLAYORDER=
